<svg width="84" height="24" viewBox="0 0 84 24" fill="none" xmlns="http://www.w3.org/2000/svg">
<path fill-rule="evenodd" clip-rule="evenodd" d="M19.9443 0.631579H25.7517V23.3684H19.6124V11.2854L14.6346 18.7561H11.117L6.13925 11.2529V23.3684H0V0.631579H5.8074L12.8758 11.2854L19.9443 0.631579ZM30.9233 1.44658C32.8893 0.493151 35.1775 0 37.4658 0C43.5571 0 49.6807 3.64931 49.6807 12.3288C49.6807 20.5479 43.5249 24 37.3369 24C35.1131 24 32.8893 23.5068 30.9233 22.5534V16.6356C32.3414 18.0164 34.404 18.5753 36.4345 18.5753C39.7541 18.5753 42.8159 17.8521 43.6538 14.5315H34.3074V9.43562H43.5571C42.6225 6.14795 39.8185 5.45753 36.5634 5.42466C34.6619 5.42466 32.4058 5.95069 30.9233 7.2V1.44658ZM84 23.4801H53.4795V0.743227H59.6503V18.1207H65.6544V0.743227H71.8252V18.1207H77.8292V0.743227H84V23.4801Z" fill="white"/>
</svg>
